<?xml version="1.0" encoding="us-ascii" standalone="no"?><svg xmlns="http://www.w3.org/2000/svg" xmlns:xlink="http://www.w3.org/1999/xlink" contentStyleType="text/css" height="1089px" preserveAspectRatio="none" style="width:668px;height:1089px;background:#FFFFFF;" version="1.1" viewBox="0 0 668 1089" width="668px" zoomAndPan="magnify"><defs/><g><text fill="#000000" font-family="sans-serif" font-size="14" font-weight="bold" lengthAdjust="spacing" textLength="259" x="205.75" y="28.5352">User Transaction Sequence Diagram</text><rect fill="none" height="551.8789" style="stroke:#000000;stroke-width:1.5;" width="651.5" x="10" y="440.082"/><rect fill="none" height="262.4395" style="stroke:#000000;stroke-width:1.5;" width="631.5" x="20" y="506.7031"/><line style="stroke:#181818;stroke-width:0.5;stroke-dasharray:5.0,5.0;" x1="48" x2="48" y1="118.9766" y2="1008.9609"/><line style="stroke:#181818;stroke-width:0.5;stroke-dasharray:5.0,5.0;" x1="215.5" x2="215.5" y1="118.9766" y2="1008.9609"/><line style="stroke:#181818;stroke-width:0.5;stroke-dasharray:5.0,5.0;" x1="419" x2="419" y1="118.9766" y2="1008.9609"/><line style="stroke:#181818;stroke-width:0.5;stroke-dasharray:5.0,5.0;" x1="599.5" x2="599.5" y1="118.9766" y2="1008.9609"/><text fill="#000000" font-family="sans-serif" font-size="14" lengthAdjust="spacing" textLength="31" x="30" y="116.0234">User</text><ellipse cx="48.5" cy="50.9883" fill="#E2E2F0" rx="8" ry="8" style="stroke:#181818;stroke-width:0.5;"/><path d="M48.5,58.9883 L48.5,85.9883 M35.5,66.9883 L61.5,66.9883 M48.5,85.9883 L35.5,100.9883 M48.5,85.9883 L61.5,100.9883 " fill="none" style="stroke:#181818;stroke-width:0.5;"/><text fill="#000000" font-family="sans-serif" font-size="14" lengthAdjust="spacing" textLength="31" x="30" y="1021.4961">User</text><ellipse cx="48.5" cy="1032.9492" fill="#E2E2F0" rx="8" ry="8" style="stroke:#181818;stroke-width:0.5;"/><path d="M48.5,1040.9492 L48.5,1067.9492 M35.5,1048.9492 L61.5,1048.9492 M48.5,1067.9492 L35.5,1082.9492 M48.5,1067.9492 L61.5,1082.9492 " fill="none" style="stroke:#181818;stroke-width:0.5;"/><rect fill="#E2E2F0" height="30.4883" rx="2.5" ry="2.5" style="stroke:#181818;stroke-width:0.5;" width="108" x="161.5" y="87.4883"/><text fill="#000000" font-family="sans-serif" font-size="14" lengthAdjust="spacing" textLength="94" x="168.5" y="108.0234">dashboard.py</text><rect fill="#E2E2F0" height="30.4883" rx="2.5" ry="2.5" style="stroke:#181818;stroke-width:0.5;" width="108" x="161.5" y="1007.9609"/><text fill="#000000" font-family="sans-serif" font-size="14" lengthAdjust="spacing" textLength="94" x="168.5" y="1028.4961">dashboard.py</text><rect fill="#E2E2F0" height="30.4883" rx="2.5" ry="2.5" style="stroke:#181818;stroke-width:0.5;" width="65" x="387" y="87.4883"/><text fill="#000000" font-family="sans-serif" font-size="14" lengthAdjust="spacing" textLength="51" x="394" y="108.0234">auth.py</text><rect fill="#E2E2F0" height="30.4883" rx="2.5" ry="2.5" style="stroke:#181818;stroke-width:0.5;" width="65" x="387" y="1007.9609"/><text fill="#000000" font-family="sans-serif" font-size="14" lengthAdjust="spacing" textLength="51" x="394" y="1028.4961">auth.py</text><rect fill="#E2E2F0" height="30.4883" rx="2.5" ry="2.5" style="stroke:#181818;stroke-width:0.5;" width="84" x="557.5" y="87.4883"/><text fill="#000000" font-family="sans-serif" font-size="14" lengthAdjust="spacing" textLength="70" x="564.5" y="108.0234">users.json</text><rect fill="#E2E2F0" height="30.4883" rx="2.5" ry="2.5" style="stroke:#181818;stroke-width:0.5;" width="84" x="557.5" y="1007.9609"/><text fill="#000000" font-family="sans-serif" font-size="14" lengthAdjust="spacing" textLength="70" x="564.5" y="1028.4961">users.json</text><polygon fill="#181818" points="203.5,176.9082,213.5,180.9082,203.5,184.9082,207.5,180.9082" style="stroke:#181818;stroke-width:1.0;"/><line style="stroke:#181818;stroke-width:1.0;" x1="48.5" x2="209.5" y1="180.9082" y2="180.9082"/><text fill="#000000" font-family="sans-serif" font-size="13" lengthAdjust="spacing" textLength="140" x="55.5" y="145.5449">Click "Transfer Funds"</text><text fill="#000000" font-family="sans-serif" font-size="13" lengthAdjust="spacing" textLength="143" x="55.5" y="160.8555">Select transaction type</text><text fill="#000000" font-family="sans-serif" font-size="13" lengthAdjust="spacing" textLength="84" x="55.5" y="176.166">Enter amount</text><line style="stroke:#181818;stroke-width:1.0;" x1="215.5" x2="257.5" y1="210.2188" y2="210.2188"/><line style="stroke:#181818;stroke-width:1.0;" x1="257.5" x2="257.5" y1="210.2188" y2="223.2188"/><line style="stroke:#181818;stroke-width:1.0;" x1="216.5" x2="257.5" y1="223.2188" y2="223.2188"/><polygon fill="#181818" points="226.5,219.2188,216.5,223.2188,226.5,227.2188,222.5,223.2188" style="stroke:#181818;stroke-width:1.0;"/><text fill="#000000" font-family="sans-serif" font-size="13" lengthAdjust="spacing" textLength="121" x="222.5" y="205.4766">Parse input as float</text><line style="stroke:#181818;stroke-width:1.0;" x1="215.5" x2="257.5" y1="252.5293" y2="252.5293"/><line style="stroke:#181818;stroke-width:1.0;" x1="257.5" x2="257.5" y1="252.5293" y2="265.5293"/><line style="stroke:#181818;stroke-width:1.0;" x1="216.5" x2="257.5" y1="265.5293" y2="265.5293"/><polygon fill="#181818" points="226.5,261.5293,216.5,265.5293,226.5,269.5293,222.5,265.5293" style="stroke:#181818;stroke-width:1.0;"/><text fill="#000000" font-family="sans-serif" font-size="13" lengthAdjust="spacing" textLength="128" x="222.5" y="247.7871">Validate amount &gt; 0</text><line style="stroke:#181818;stroke-width:1.0;" x1="215.5" x2="257.5" y1="294.8398" y2="294.8398"/><line style="stroke:#181818;stroke-width:1.0;" x1="257.5" x2="257.5" y1="294.8398" y2="307.8398"/><line style="stroke:#181818;stroke-width:1.0;" x1="216.5" x2="257.5" y1="307.8398" y2="307.8398"/><polygon fill="#181818" points="226.5,303.8398,216.5,307.8398,226.5,311.8398,222.5,307.8398" style="stroke:#181818;stroke-width:1.0;"/><text fill="#000000" font-family="sans-serif" font-size="13" lengthAdjust="spacing" textLength="143" x="222.5" y="290.0977">_perform_transaction()</text><polygon fill="#181818" points="407.5,333.1504,417.5,337.1504,407.5,341.1504,411.5,337.1504" style="stroke:#181818;stroke-width:1.0;"/><line style="stroke:#181818;stroke-width:1.0;" x1="215.5" x2="413.5" y1="337.1504" y2="337.1504"/><text fill="#000000" font-family="sans-serif" font-size="13" lengthAdjust="spacing" textLength="69" x="222.5" y="332.4082">load_data()</text><polygon fill="#181818" points="587.5,362.4609,597.5,366.4609,587.5,370.4609,591.5,366.4609" style="stroke:#181818;stroke-width:1.0;"/><line style="stroke:#181818;stroke-width:1.0;" x1="419.5" x2="593.5" y1="366.4609" y2="366.4609"/><text fill="#000000" font-family="sans-serif" font-size="13" lengthAdjust="spacing" textLength="99" x="426.5" y="361.7188">Read users.json</text><polygon fill="#181818" points="430.5,391.7715,420.5,395.7715,430.5,399.7715,426.5,395.7715" style="stroke:#181818;stroke-width:1.0;"/><line style="stroke:#181818;stroke-width:1.0;stroke-dasharray:2.0,2.0;" x1="424.5" x2="598.5" y1="395.7715" y2="395.7715"/><text fill="#000000" font-family="sans-serif" font-size="13" lengthAdjust="spacing" textLength="97" x="436.5" y="391.0293">user_data (dict)</text><polygon fill="#181818" points="226.5,421.082,216.5,425.082,226.5,429.082,222.5,425.082" style="stroke:#181818;stroke-width:1.0;"/><line style="stroke:#181818;stroke-width:1.0;stroke-dasharray:2.0,2.0;" x1="220.5" x2="418.5" y1="425.082" y2="425.082"/><text fill="#000000" font-family="sans-serif" font-size="13" lengthAdjust="spacing" textLength="61" x="232.5" y="420.3398">user_data</text><path d="M10,440.082 L72,440.082 L72,447.3926 L62,457.3926 L10,457.3926 L10,440.082 " fill="#EEEEEE" style="stroke:#000000;stroke-width:1.5;"/><rect fill="none" height="551.8789" style="stroke:#000000;stroke-width:1.5;" width="651.5" x="10" y="440.082"/><text fill="#000000" font-family="sans-serif" font-size="13" font-weight="bold" lengthAdjust="spacing" textLength="17" x="25" y="453.6504">alt</text><text fill="#000000" font-family="sans-serif" font-size="11" font-weight="bold" lengthAdjust="spacing" textLength="109" x="87" y="452.7168">[Withdraw selected]</text><line style="stroke:#181818;stroke-width:1.0;" x1="215.5" x2="257.5" y1="478.7031" y2="478.7031"/><line style="stroke:#181818;stroke-width:1.0;" x1="257.5" x2="257.5" y1="478.7031" y2="491.7031"/><line style="stroke:#181818;stroke-width:1.0;" x1="216.5" x2="257.5" y1="491.7031" y2="491.7031"/><polygon fill="#181818" points="226.5,487.7031,216.5,491.7031,226.5,495.7031,222.5,491.7031" style="stroke:#181818;stroke-width:1.0;"/><text fill="#000000" font-family="sans-serif" font-size="13" lengthAdjust="spacing" textLength="167" x="222.5" y="473.9609">Check balance &gt;= amount</text><path d="M20,506.7031 L82,506.7031 L82,514.0137 L72,524.0137 L20,524.0137 L20,506.7031 " fill="#EEEEEE" style="stroke:#000000;stroke-width:1.5;"/><rect fill="none" height="262.4395" style="stroke:#000000;stroke-width:1.5;" width="631.5" x="20" y="506.7031"/><text fill="#000000" font-family="sans-serif" font-size="13" font-weight="bold" lengthAdjust="spacing" textLength="17" x="35" y="520.2715">alt</text><text fill="#000000" font-family="sans-serif" font-size="11" font-weight="bold" lengthAdjust="spacing" textLength="108" x="97" y="519.3379">[Sufficient balance]</text><line style="stroke:#181818;stroke-width:1.0;" x1="215.5" x2="257.5" y1="545.3242" y2="545.3242"/><line style="stroke:#181818;stroke-width:1.0;" x1="257.5" x2="257.5" y1="545.3242" y2="558.3242"/><line style="stroke:#181818;stroke-width:1.0;" x1="216.5" x2="257.5" y1="558.3242" y2="558.3242"/><polygon fill="#181818" points="226.5,554.3242,216.5,558.3242,226.5,562.3242,222.5,558.3242" style="stroke:#181818;stroke-width:1.0;"/><text fill="#000000" font-family="sans-serif" font-size="13" lengthAdjust="spacing" textLength="190" x="222.5" y="540.582">Subtract amount from balance</text><line style="stroke:#181818;stroke-width:1.0;" x1="215.5" x2="257.5" y1="602.9453" y2="602.9453"/><line style="stroke:#181818;stroke-width:1.0;" x1="257.5" x2="257.5" y1="602.9453" y2="615.9453"/><line style="stroke:#181818;stroke-width:1.0;" x1="216.5" x2="257.5" y1="615.9453" y2="615.9453"/><polygon fill="#181818" points="226.5,611.9453,216.5,615.9453,226.5,619.9453,222.5,615.9453" style="stroke:#181818;stroke-width:1.0;"/><text fill="#000000" font-family="sans-serif" font-size="13" lengthAdjust="spacing" textLength="141" x="222.5" y="582.8926">Generate timestamped</text><text fill="#000000" font-family="sans-serif" font-size="13" lengthAdjust="spacing" textLength="141" x="222.5" y="598.2031">withdraw history entry</text><polygon fill="#181818" points="407.5,641.2559,417.5,645.2559,407.5,649.2559,411.5,645.2559" style="stroke:#181818;stroke-width:1.0;"/><line style="stroke:#181818;stroke-width:1.0;" x1="215.5" x2="413.5" y1="645.2559" y2="645.2559"/><text fill="#000000" font-family="sans-serif" font-size="13" lengthAdjust="spacing" textLength="131" x="222.5" y="640.5137">save_data(user_data)</text><polygon fill="#181818" points="587.5,670.5664,597.5,674.5664,587.5,678.5664,591.5,674.5664" style="stroke:#181818;stroke-width:1.0;"/><line style="stroke:#181818;stroke-width:1.0;" x1="419.5" x2="593.5" y1="674.5664" y2="674.5664"/><text fill="#000000" font-family="sans-serif" font-size="13" lengthAdjust="spacing" textLength="156" x="426.5" y="669.8242">Write updated users.json</text><line style="stroke:#181818;stroke-width:1.0;" x1="215.5" x2="257.5" y1="703.877" y2="703.877"/><line style="stroke:#181818;stroke-width:1.0;" x1="257.5" x2="257.5" y1="703.877" y2="716.877"/><line style="stroke:#181818;stroke-width:1.0;" x1="216.5" x2="257.5" y1="716.877" y2="716.877"/><polygon fill="#181818" points="226.5,712.877,216.5,716.877,226.5,720.877,222.5,716.877" style="stroke:#181818;stroke-width:1.0;"/><text fill="#000000" font-family="sans-serif" font-size="13" lengthAdjust="spacing" textLength="156" x="222.5" y="699.1348">Update balance_var label</text><line style="stroke:#000000;stroke-width:1.0;stroke-dasharray:2.0,2.0;" x1="20" x2="651.5" y1="725.877" y2="725.877"/><text fill="#000000" font-family="sans-serif" font-size="11" font-weight="bold" lengthAdjust="spacing" textLength="119" x="25" y="736.5117">[Insufficient balance]</text><polygon fill="#181818" points="59.5,757.1426,49.5,761.1426,59.5,765.1426,55.5,761.1426" style="stroke:#181818;stroke-width:1.0;"/><line style="stroke:#181818;stroke-width:1.0;" x1="53.5" x2="214.5" y1="761.1426" y2="761.1426"/><text fill="#000000" font-family="sans-serif" font-size="13" lengthAdjust="spacing" textLength="140" x="65.5" y="756.4004">Display error message</text><line style="stroke:#000000;stroke-width:1.0;stroke-dasharray:2.0,2.0;" x1="10" x2="661.5" y1="777.1426" y2="777.1426"/><text fill="#000000" font-family="sans-serif" font-size="11" font-weight="bold" lengthAdjust="spacing" textLength="100" x="15" y="787.7773">[Deposit selected]</text><line style="stroke:#181818;stroke-width:1.0;" x1="215.5" x2="257.5" y1="812.4082" y2="812.4082"/><line style="stroke:#181818;stroke-width:1.0;" x1="257.5" x2="257.5" y1="812.4082" y2="825.4082"/><line style="stroke:#181818;stroke-width:1.0;" x1="216.5" x2="257.5" y1="825.4082" y2="825.4082"/><polygon fill="#181818" points="226.5,821.4082,216.5,825.4082,226.5,829.4082,222.5,825.4082" style="stroke:#181818;stroke-width:1.0;"/><text fill="#000000" font-family="sans-serif" font-size="13" lengthAdjust="spacing" textLength="146" x="222.5" y="807.666">Add amount to balance</text><line style="stroke:#181818;stroke-width:1.0;" x1="215.5" x2="257.5" y1="870.0293" y2="870.0293"/><line style="stroke:#181818;stroke-width:1.0;" x1="257.5" x2="257.5" y1="870.0293" y2="883.0293"/><line style="stroke:#181818;stroke-width:1.0;" x1="216.5" x2="257.5" y1="883.0293" y2="883.0293"/><polygon fill="#181818" points="226.5,879.0293,216.5,883.0293,226.5,887.0293,222.5,883.0293" style="stroke:#181818;stroke-width:1.0;"/><text fill="#000000" font-family="sans-serif" font-size="13" lengthAdjust="spacing" textLength="141" x="222.5" y="849.9766">Generate timestamped</text><text fill="#000000" font-family="sans-serif" font-size="13" lengthAdjust="spacing" textLength="131" x="222.5" y="865.2871">deposit history entry</text><polygon fill="#181818" points="407.5,908.3398,417.5,912.3398,407.5,916.3398,411.5,912.3398" style="stroke:#181818;stroke-width:1.0;"/><line style="stroke:#181818;stroke-width:1.0;" x1="215.5" x2="413.5" y1="912.3398" y2="912.3398"/><text fill="#000000" font-family="sans-serif" font-size="13" lengthAdjust="spacing" textLength="131" x="222.5" y="907.5977">save_data(user_data)</text><polygon fill="#181818" points="587.5,937.6504,597.5,941.6504,587.5,945.6504,591.5,941.6504" style="stroke:#181818;stroke-width:1.0;"/><line style="stroke:#181818;stroke-width:1.0;" x1="419.5" x2="593.5" y1="941.6504" y2="941.6504"/><text fill="#000000" font-family="sans-serif" font-size="13" lengthAdjust="spacing" textLength="156" x="426.5" y="936.9082">Write updated users.json</text><line style="stroke:#181818;stroke-width:1.0;" x1="215.5" x2="257.5" y1="970.9609" y2="970.9609"/><line style="stroke:#181818;stroke-width:1.0;" x1="257.5" x2="257.5" y1="970.9609" y2="983.9609"/><line style="stroke:#181818;stroke-width:1.0;" x1="216.5" x2="257.5" y1="983.9609" y2="983.9609"/><polygon fill="#181818" points="226.5,979.9609,216.5,983.9609,226.5,987.9609,222.5,983.9609" style="stroke:#181818;stroke-width:1.0;"/><text fill="#000000" font-family="sans-serif" font-size="13" lengthAdjust="spacing" textLength="156" x="222.5" y="966.2188">Update balance_var label</text><!--SRC=[bPDFRzim3CNl-XH4JksXHSy15g1ejc6tOUcVIu20iUXQcoof4jKYtxwKOxlrsco9JuRu-4JzdiI6BS5TeWYt4Lt2YertiAAdJAuYM1fyZDWg9GKVEw4A6DbK9g1Zc6bCpTPZr9TXDmDCi1mMfZhCt0oIQ_cVLhFufilVoRlUWr6fRggBnPlZ76wigVx0h1krbkgtx7IQhTsAB5KC_Eu8l0kqTbyTYmnRdnshqUWlrvyO4u5n8NFPlROU3ullqHgDJBqfBE1A7HHl0iNQntRpRhApywcyq9Y3xAatuejIBYjx8yOv_2BKy0P8bLMu61jBfMk4Csqg7hgdSumY2T8oF1XkTCGNI1qtqWhaEtI8cuO4-XOjbXkn-3BWB3t5RPNhMf8aWT6BkjA_B5TvAqGaiHvY7NrxTFDtSXHB0cnQIenj8BrsByEP6fFagkv0vecxpytsv18-qnxvYETyr4ypU8X6zikX13y9ut-ptdKjmz4spnZ1ufPirqXMhjqFbuxaLzx3N5va2XRbU37AWnG02H_t3UIqKftdae9FXe-Bzrhh8GRsambE2q3tctxaVmhx4xYVpBm0UWK0]--></g></svg>